<svg width="749" height="423" viewBox="0 0 749 423" fill="none" xmlns="http://www.w3.org/2000/svg">
<path d="M588.934 286.908L582.592 298.355C581.621 300.079 580.653 300.934 579.222 300.769C578.936 300.736 578.65 300.703 578.375 300.575C563.371 295.757 558.996 286.75 561.295 262.566L554.186 261.362C553.148 261.145 552.399 260.093 552.52 259.044L555.486 243.344C555.702 242.306 556.659 241.546 557.804 241.678L563.863 242.762C564.471 239.16 565.112 235.271 565.87 231.203C566.097 230.07 566.496 228.28 568.975 228.565L569.357 228.609L587.283 231.541C588.894 231.823 589.547 232.864 589.36 234.486C588.709 238.469 587.94 242.633 587.193 246.605L593.73 247.744C594.779 247.865 595.527 248.917 595.396 250.061L592.43 265.761C592.225 266.704 591.363 267.475 590.314 267.354L590.123 267.332L583.862 266.322C582.863 275 583.251 281.713 587.238 284.008C588.233 284.605 589.333 285.118 589.212 286.167C589.191 286.358 589.062 286.633 588.934 286.908Z" fill="black"/>
<path d="M536.499 293.261L518.232 298.951C517.114 299.232 515.996 298.722 515.715 297.605L500.915 249.853C500.634 248.736 501.237 247.594 502.261 247.336L512.919 244.058C517.548 241.209 522.201 239.245 526.856 238.073C530.021 237.276 533.187 236.874 536.237 236.799C537.727 236.82 538.473 237.424 538.754 238.541C538.848 238.913 538.849 239.309 538.873 239.798L539.479 253.604C539.528 254.978 538.762 255.864 537.644 256.145C537.365 256.215 536.969 256.216 536.574 256.217C534.967 256.126 533.314 256.246 531.731 256.644C530.428 256.973 529.172 257.487 527.776 258.235L537.845 290.744L537.892 290.93C538.15 291.954 537.523 293.003 536.499 293.261Z" fill="black"/>
<path d="M458.225 297.296L457.109 297.01C435.997 291.608 429.084 274.479 432.701 260.343C436.105 247.043 449.068 235.497 470.273 240.923C493.337 246.826 489.101 267.641 488.315 270.71C487.22 274.988 484.549 278.07 478.586 278.526C473.834 278.895 466.69 278.157 461.806 277.106C460.318 276.725 460.02 275.955 459.933 274.744C459.603 271.389 459.382 264.891 459.478 264.519C459.739 263.496 460.603 263.222 461.883 263.252C467.005 263.374 467.703 263.354 468.037 262.052C468.251 261.215 467.245 257.787 463.339 256.787C458.875 255.645 454.155 258.599 452.68 264.365C450.99 270.968 453.922 279.646 465.547 282.621C466.198 282.788 466.942 282.978 467.617 283.052L467.803 283.1C469.105 283.433 470.472 284.674 470.068 286.255C469.83 287.185 465.793 292.891 463.589 295.696C462.464 296.994 460.922 297.986 458.225 297.296Z" fill="black"/>
<path d="M385.099 298.169L369.566 302.229C368.531 302.44 367.437 301.88 367.112 300.771L347.44 224.739L347.401 224.551C347.209 223.611 347.882 222.591 348.804 222.304L367.421 217.515L367.61 217.477C368.644 217.265 369.57 217.958 369.875 218.973L376.484 244.568C379.827 242.708 383.568 241.355 387.518 240.546C405.576 236.852 419.678 245.431 423.142 262.36C426.644 279.478 414.153 294.576 397.694 297.944C393.649 298.771 389.451 298.846 385.099 298.169ZM381.119 262.433L386.002 281.032C387.698 281.175 389.241 281.055 390.746 280.747C397.329 279.4 401.39 273.866 400.082 267.47C399.254 263.426 395.971 257.435 388.258 259.013C385.531 259.571 382.977 260.975 381.119 262.433Z" fill="black"/>
<path d="M333.127 308.372L313.937 306.357C312.887 306.247 312.118 305.297 312.228 304.247L320.421 226.244C320.541 225.098 321.491 224.329 322.541 224.44L341.731 226.455C342.781 226.565 343.55 227.515 343.43 228.661L335.237 306.664C335.127 307.714 334.177 308.483 333.127 308.372Z" fill="black"/>
<path d="M299.516 304.318L273.381 317.855C272.697 318.244 271.852 318.492 271.135 318.567C268.84 318.808 266.97 317.577 266.424 316.524L226.36 241.726C225.814 240.672 225.334 240.247 224.904 240.292C223.756 240.413 222.64 244.973 216.226 270.873L232.679 270.095C234.544 269.899 236.16 271.474 236.374 273.514L236.407 273.828L237.639 302.098C237.694 303.996 236.44 305.873 234.576 306.069L234.289 306.1L207.601 307.478C205.667 315.297 204.269 321.314 203.987 322.771C203.468 324.73 202.436 325.949 200.714 326.13C199.997 326.205 199.263 326.124 198.369 325.901L175.694 321.304C172.87 320.649 171.524 318.886 171.277 316.533C170.765 311.668 186.024 220.899 206.899 194.588C207.677 193.713 209.714 192.389 211.866 192.162L232.667 189.975C235.68 189.658 238.283 190.971 239.006 192.323L300.434 297.876C300.787 298.473 301.173 299.384 301.255 300.169C301.42 301.738 300.884 303.54 299.516 304.318Z" fill="black"/>
<path fill-rule="evenodd" clip-rule="evenodd" d="M222.956 105.213C243.432 105.213 252.052 107.553 256.424 111.977C260.797 116.402 263.105 125.12 263.105 145.838C263.105 166.557 260.797 175.279 256.424 179.703C252.052 184.127 243.432 186.463 222.956 186.463C202.48 186.463 193.86 184.127 189.488 179.703C185.116 175.279 182.807 166.557 182.807 145.838C182.807 125.12 185.116 116.397 189.488 111.977C193.86 107.553 202.48 105.213 222.956 105.213ZM271.135 145.838C271.135 105.213 263.105 97.0884 222.956 97.0884C182.807 97.0884 174.777 105.213 174.777 145.838C174.777 186.463 182.807 194.588 222.956 194.588C263.105 194.588 271.135 186.463 271.135 145.838Z" fill="black"/>
<path fill-rule="evenodd" clip-rule="evenodd" d="M212.282 174.701C212.305 178.704 212.35 190.336 212.35 191.47H236.894C236.894 190.948 236.899 189.09 236.908 186.601C236.926 181.573 236.953 173.989 236.953 169.7C236.953 165.226 235.371 162.297 233.594 160.815C244.623 159.631 256.197 155.574 256.197 137.146C256.197 131.909 254.28 127.63 251.106 124.275C251.618 123.06 253.318 118.182 250.617 111.581C250.617 111.581 246.468 110.289 237.016 116.496C233.059 115.43 228.825 114.9 224.622 114.882C220.411 114.9 216.176 115.43 212.228 116.496C202.771 110.289 198.614 111.581 198.614 111.581C195.921 118.182 197.617 123.06 198.129 124.275C194.965 127.63 193.033 131.909 193.033 137.146C193.033 155.529 204.589 159.645 215.582 160.855C214.168 162.052 212.89 164.169 212.441 167.266C209.621 168.494 202.449 170.611 198.034 163.281C198.034 163.281 195.418 158.675 190.449 158.335C190.449 158.335 185.617 158.276 190.109 161.25C190.109 161.25 193.355 162.728 195.608 168.268C195.608 168.268 198.514 177.597 212.282 174.701Z" fill="black"/>
<path fill-rule="evenodd" clip-rule="evenodd" d="M476.667 208.754C473.612 207.325 470.387 206.311 467.074 205.739C466.621 206.567 466.21 207.418 465.845 208.29C462.316 207.747 458.727 207.747 455.198 208.29C454.833 207.419 454.423 206.567 453.97 205.739C450.654 206.316 447.427 207.332 444.369 208.761C438.298 217.937 436.652 226.885 437.475 235.705C441.03 238.389 445.01 240.43 449.241 241.739C450.193 240.43 451.036 239.042 451.761 237.588C450.385 237.064 449.057 236.416 447.792 235.653C448.125 235.407 448.451 235.153 448.765 234.906C452.445 236.674 456.461 237.59 460.527 237.59C464.593 237.59 468.61 236.674 472.289 234.906C472.608 235.171 472.933 235.425 473.262 235.653C471.995 236.417 470.665 237.066 469.287 237.592C470.01 239.045 470.853 240.432 471.807 241.739C476.041 240.435 480.024 238.395 483.58 235.709C484.545 225.48 481.93 216.614 476.667 208.754ZM452.803 230.281C450.51 230.281 448.615 228.155 448.615 225.54C448.615 222.925 450.444 220.78 452.796 220.78C455.147 220.78 457.027 222.925 456.987 225.54C456.947 228.155 455.14 230.281 452.803 230.281ZM468.252 230.281C465.955 230.281 464.068 228.155 464.068 225.54C464.068 222.925 465.896 220.78 468.252 220.78C470.607 220.78 472.472 222.925 472.432 225.54C472.392 228.155 470.589 230.281 468.252 230.281Z" fill="black"/>
<path fill-rule="evenodd" clip-rule="evenodd" d="M344.25 176.069C357.319 176.069 362.821 177.488 365.611 180.177C368.402 182.865 369.875 188.166 369.875 200.756C369.875 213.347 368.402 218.647 365.611 221.336C362.821 224.024 357.319 225.444 344.25 225.444C331.182 225.444 325.68 224.024 322.889 221.336C320.099 218.647 318.625 213.347 318.625 200.756C318.625 188.166 320.099 182.865 322.889 180.177C325.68 177.488 331.182 176.069 344.25 176.069Z" fill="black"/>
<path fill-rule="evenodd" clip-rule="evenodd" d="M344.09 187.052C342.016 187.052 339.963 187.445 338.047 188.21C336.131 188.974 334.391 190.095 332.924 191.508C331.458 192.92 330.295 194.597 329.502 196.443C328.708 198.288 328.3 200.267 328.3 202.264C328.3 204.262 328.708 206.24 329.502 208.086C330.295 209.932 331.458 211.609 332.924 213.021C334.391 214.434 336.131 215.554 338.047 216.319C339.963 217.083 342.016 217.477 344.09 217.477C346.163 217.477 348.217 217.083 350.132 216.319C352.048 215.554 353.789 214.434 355.255 213.021C356.721 211.609 357.884 209.932 358.678 208.086C359.471 206.24 359.88 204.262 359.88 202.264C359.88 200.267 359.471 198.288 358.678 196.443C357.884 194.597 356.721 192.92 355.255 191.508C353.789 190.095 352.048 188.974 350.132 188.21C348.217 187.445 346.163 187.052 344.09 187.052ZM344.09 212.139C341.371 212.139 338.764 211.099 336.842 209.247C334.92 207.395 333.84 204.883 333.84 202.264C333.84 199.645 334.92 197.134 336.842 195.282C338.764 193.43 341.371 192.389 344.09 192.389C346.808 192.389 349.415 193.43 351.338 195.282C353.26 197.134 354.34 199.645 354.34 202.264C354.34 204.883 353.26 207.395 351.338 209.247C349.415 211.099 346.808 212.139 344.09 212.139ZM364.193 186.452C364.193 186.919 364.097 187.381 363.912 187.812C363.726 188.244 363.454 188.636 363.112 188.966C362.769 189.296 362.362 189.558 361.915 189.736C361.467 189.915 360.987 190.007 360.503 190.007C360.018 190.007 359.538 189.915 359.09 189.736C358.643 189.558 358.236 189.296 357.893 188.966C357.551 188.636 357.279 188.244 357.093 187.812C356.908 187.381 356.813 186.919 356.813 186.452C356.813 185.509 357.201 184.605 357.893 183.938C358.585 183.272 359.524 182.897 360.503 182.897C361.481 182.897 362.42 183.272 363.112 183.938C363.804 184.605 364.193 185.509 364.193 186.452Z" fill="black"/>
<path fill-rule="evenodd" clip-rule="evenodd" d="M554.195 205.474C554.893 204.399 556.442 204.03 557.652 204.651C558.862 205.272 559.277 206.649 558.579 207.724L540.86 235.003C540.161 236.079 538.612 236.448 537.402 235.827C536.192 235.206 535.777 233.829 536.476 232.753L554.195 205.474ZM565.2 231.241C564.304 230.287 564.451 228.868 565.524 228.073L566.145 227.612C569.886 224.831 571.754 223.441 575.077 220.239C571.691 216.974 569.883 215.638 565.935 212.708L565.524 212.404C564.451 211.61 564.304 210.19 565.2 209.236C566.094 208.282 567.585 208.285 568.767 208.948C572.84 211.239 575.371 213.489 579.398 217.867C579.953 218.569 580.434 219.361 580.434 220.239C580.434 221.116 579.953 221.908 579.398 222.608C575.371 226.989 572.84 229.239 568.767 231.527L568.764 231.529C567.691 232.326 566.094 232.195 565.2 231.241ZM529.53 228.073C530.603 228.868 530.75 230.287 529.854 231.241C528.961 232.195 527.363 232.326 526.29 231.529L526.288 231.527C522.215 229.239 519.684 226.989 515.656 222.608C515.102 221.908 514.621 221.116 514.621 220.239C514.621 219.361 515.102 218.569 515.656 217.867C519.684 213.489 522.215 211.239 526.288 208.948C527.47 208.285 528.961 208.282 529.854 209.236C530.75 210.19 530.603 211.61 529.53 212.404L529.12 212.708C525.171 215.638 523.364 216.974 519.977 220.239C523.301 223.441 525.169 224.831 528.91 227.612L529.53 228.073Z" fill="black"/>
<path d="M217.413 96.0073C219.216 95.9926 220.995 96.0006 222.957 96.0269C237.047 96.0066 255.499 98.0623 261.714 105.196C268.313 112.612 268.347 115.659 270.279 124.719C271.187 130.097 271.465 137.536 271.261 143.779C271.155 146.969 270.996 146.214 270.895 143.052C270.739 138.417 270.63 134.6 270.254 132.265C269.445 127.567 269.199 125.571 268.123 119.717C266.863 113.889 264.965 111.635 263.07 108.924C262.056 107.604 261.614 106.871 259.682 105.204C257.731 103.631 254.044 100.96 245.315 99.4917C235.952 98.0469 228.679 98.2641 222.957 98.2554C218.037 98.3021 214.253 98.4528 211.158 98.6675C204.78 99.17 189.363 99.8401 183.003 108.901C176.613 116.206 175.886 135.562 176.054 145.838C176.067 147.194 176.091 148.375 176.123 149.368C176.502 158.378 176.124 158.4 176.744 165.589C177.682 172.669 179.474 178.538 185.062 184.594C191.309 189.935 192.922 190.655 202.689 192.43C204.223 192.639 205.764 192.811 207.29 192.957C208.649 191.954 210.137 191.411 211.765 191.205C211.831 191.198 211.897 191.191 211.963 191.184C211.96 189.977 211.96 188.721 211.966 187.439C210.391 187.252 208.849 186.982 206.011 186.615C200.144 185.49 194.575 186.257 188.424 180.754C188.273 180.599 188.123 180.437 187.975 180.268C183.209 173.437 184.101 171.81 182.606 163.245C181.799 156.794 181.894 150.302 181.891 145.838C181.893 144.289 181.891 142.991 181.857 142.015C181.752 138.131 182.291 137.757 182.528 132.272C182.862 126.792 183.346 123.415 184.954 118.82C185.573 117.201 186.679 114.189 189.199 111.692C193.761 107.19 201.42 106.352 204.696 105.695C209.999 104.752 216.138 104.985 219.795 105.035C220.94 105.05 221.829 105.086 222.524 105.127C222.818 105.145 222.957 105.183 222.957 105.22C222.957 105.266 222.743 105.311 222.366 105.318C220.559 105.351 217.828 105.446 214.64 105.741C208.722 106.406 207.969 105.841 200.124 107.463C195.837 108.526 192.569 109.941 190.057 112.54C188.06 114.633 186.668 117.569 185.585 121.561C183.553 130.61 184.405 132.95 183.77 145.838C183.764 146.011 183.758 146.186 183.752 146.361C183.66 159.62 183.761 161.512 187.446 173.688C188.188 175.505 189.176 177.255 190.552 178.652C196.276 183.591 205.013 184.684 211.986 185.022C212.015 182.201 212.07 179.337 212.159 176.684C212.261 173.61 212.429 174.309 212.522 177.4C212.61 180.347 212.616 182.949 212.667 185.05C215.539 185.173 218.074 185.183 219.919 185.302C220.897 185.309 221.889 185.31 222.957 185.303C226.874 185.217 231.38 185.223 236.102 184.854C236.112 182.276 236.101 178.82 236.045 174.069C236.027 172.556 236.009 171.093 235.991 169.7C235.964 166.278 234.832 163.211 232.9 161.647L230.932 160.026L233.478 159.737C242.254 158.785 247.453 155.839 250.149 152.626C252.7 149.969 255.124 143.975 255.031 137.145C255.133 132.77 253.393 128.37 250.598 125.421C250.491 125.304 250.38 125.188 250.266 125.07L249.75 124.534L250.042 123.826C251.17 121.068 251.309 116.784 249.767 112.701C246.071 112.589 241.255 115.169 237.689 117.52L237.242 117.82L236.698 117.679C232.039 116.436 227.643 116.154 224.617 116.194H224.627C224.403 116.198 224.186 116.205 223.977 116.212C217.445 116.583 215.902 116.924 212.512 117.548L212.05 117.678L211.629 117.408C210.744 116.762 209.71 116.039 208.265 115.201C205.423 113.554 202.056 112.397 199.535 112.653C198.692 115.382 198.289 118.429 198.93 121.828C199.07 122.532 199.256 123.184 199.46 123.713L199.83 124.566L199.18 125.267C195.635 129.214 194.328 131.296 194.02 137.145C194.017 138.187 194.056 139.31 194.183 140.568C194.462 150.699 202.84 157.364 207.083 158.081C210.679 159.044 211.427 159.593 215.66 160.159L217.276 160.327L216.035 161.39C215.599 161.754 215.16 162.242 214.762 162.871C213.834 164.357 213.428 165.917 213.214 167.377L213.157 167.802L212.753 167.983C209.33 169.409 205.716 169.947 202.042 168C200.725 167.295 198.941 165.786 197.649 163.513L197.643 163.502C196.296 161.229 193.598 158.885 190.438 158.693C190.015 158.693 189.55 158.734 189.153 158.838C188.955 158.891 188.765 158.967 188.653 159.058C188.543 159.158 188.535 159.184 188.558 159.313C188.772 159.907 189.616 160.493 190.304 160.956L190.255 160.929C193.139 162.586 194.531 165.139 195.425 166.722C195.662 167.163 195.876 167.607 196.079 168.076L196.093 168.117C198.085 173.459 204.928 175.416 208.677 175.012C209.966 174.954 211.005 174.82 211.776 174.715C212.11 174.669 212.276 174.671 212.284 174.708C212.293 174.752 212.057 174.851 211.633 174.936C209.605 175.317 206.393 175.898 202.673 175C198.138 173.624 196.615 171.735 195.163 168.407L195.175 168.444C194.525 166.88 193.641 164.856 191.439 162.829C190.94 162.387 190.371 161.974 189.885 161.743L189.81 161.702C189.379 161.427 188.973 161.149 188.583 160.817C188.214 160.458 187.748 160.185 187.595 159.317C187.532 158.835 187.909 158.357 188.184 158.2C188.473 158.012 188.737 157.928 188.991 157.858C189.5 157.727 189.957 157.68 190.458 157.666L190.495 157.667C193.899 157.839 196.799 159.827 198.761 162.868L198.75 162.849C200.038 164.958 202.02 167.019 205.131 167.611C207.714 168.068 209.909 167.477 211.712 166.71C211.982 164.949 212.459 163.231 213.536 161.665C210.378 161.294 206.476 160.612 201.76 157.709C192.136 150.228 192.622 144.522 191.764 137.145C191.68 134.405 192.025 130.968 194.123 127.191C194.763 126.049 195.537 124.957 196.416 123.938C195.034 119.681 195.615 115.011 197.295 111.043L197.56 110.412L198.191 110.221C204.597 109.742 208.62 112.804 212.436 115.173C216.905 114.089 220.915 113.817 223.884 113.748C224.126 113.742 224.371 113.738 224.617 113.736C228.302 113.737 232.464 114.103 236.82 115.2C240.721 112.816 244.787 109.891 250.978 110.422L251.533 110.601L251.741 111.122C252.647 113.354 253.219 115.789 253.268 118.292C253.298 120.162 253.086 122.092 252.421 124.013C255.479 127.424 257.429 132.24 257.381 137.145C257.677 145.09 254.424 154.641 246.815 158.304C243.525 160.083 239.576 161.055 235.539 161.559C237.284 163.949 237.796 166.982 237.764 169.7C237.683 175.155 237.584 180.379 237.499 184.734C241.472 184.361 245.571 183.694 249.576 182.46C251.761 181.712 253.936 180.61 255.612 178.901C261.713 172.02 261.336 160.097 261.924 150.48C261.978 148.986 262.017 147.462 262.043 145.838C262.26 133.968 261.712 118.696 256.848 113.155C256.603 112.843 256.355 112.557 256.105 112.292C250.805 107.647 248.033 107.592 240.75 106.469C236.243 105.939 229.989 105.61 224.682 105.352C222.017 105.226 222.625 105.058 225.311 104.998C229.241 104.917 232.477 105.136 234.51 105.06C238.586 104.951 240.371 104.863 245.427 106.058C250.412 107.379 252.972 107.936 255.558 109.851C256.196 110.353 256.627 110.779 257.103 111.307C258.283 112.884 261.175 115.271 262.978 126.624C264.162 134.781 264.178 140.968 264.272 145.838C264.318 150.055 264.255 153.273 264.151 155.948C263.654 161.153 263.979 172.88 257.233 180.502C256.752 180.995 256.242 181.443 255.716 181.852C251.521 185.175 244.418 186.557 237.452 187.167C237.433 188.069 237.416 188.92 237.4 189.714C238.328 190.191 239.115 190.904 239.779 191.905C239.974 192.274 240.176 192.651 240.386 193.044C245.849 192.331 249.478 191.701 254.243 189.966C256.809 189.047 262.011 186.224 264.947 181.185C267.981 176.259 269.014 170.324 269.396 167.253C270.155 161.013 270.755 153.893 270.912 149.557C270.959 148.245 271.004 147.179 271.048 146.352C271.067 146.002 271.105 145.838 271.142 145.838C271.188 145.839 271.234 146.093 271.239 146.542C271.26 148.717 271.314 151.862 271.313 155.702C271.144 162.764 271.125 163.617 269.197 173.005C266.861 182.078 263.042 188.755 251.975 192.263C247.508 193.377 244.418 194.16 241.268 194.684C242.267 196.516 243.543 198.775 245.452 201.97C251.281 211.73 254.681 217.723 259.518 226.411C264.356 235.099 279.579 261.58 285.367 271.063C290.994 280.285 296.847 291.083 300.613 297.771C300.724 297.965 300.823 298.162 300.912 298.359C301.179 298.958 301.369 299.555 301.426 300.151C301.556 301.736 301.032 303.069 300.271 303.829C299.822 304.266 299.524 304.338 299.512 304.312C299.484 304.263 299.877 304.057 300.337 303.458C300.947 302.651 301.26 301.449 301.117 300.183C301.021 299.446 300.712 298.678 300.286 297.963C298.761 295.431 296.981 292.501 295.013 289.306C288.478 278.697 288.091 277.346 279.492 262.889C270.892 248.432 265.531 239.858 255.755 222.648C248.951 210.67 245.412 205.336 239.294 194.976C235.296 195.495 230.754 195.642 222.957 195.551C222.75 195.545 222.541 195.54 222.332 195.533C215.598 195.054 211.36 195.213 207.514 195.104C199.303 206.869 197.419 213.627 190.766 233.775C182.475 260.232 175.161 294.679 172.923 311.225C172.701 312.965 172.411 315.052 172.428 316.412C172.591 318.335 173.86 319.714 175.951 320.153C182.944 321.549 190.575 323.076 198.613 324.701L198.667 324.712C199.36 324.886 199.999 324.976 200.586 324.912C201.717 324.823 202.414 323.919 202.799 322.468C203.894 317.396 205.155 312.363 206.446 307.192L206.664 306.331L207.54 306.29C208.987 306.221 210.439 306.152 211.897 306.084C218.921 305.757 226.43 305.367 234.201 304.952C234.285 304.943 234.371 304.934 234.456 304.925C235.498 304.858 236.421 303.642 236.477 302.383V302.149C236.052 292.907 235.606 283.38 235.193 273.928C235.183 273.833 235.174 273.737 235.164 273.642C235.051 272.286 233.896 271.144 232.805 271.303L232.736 271.308C227.174 271.564 221.663 271.804 216.28 272.016L214.741 272.081L215.116 270.598C215.167 270.398 215.217 270.199 215.268 270.001C218.148 260.693 218.612 250.436 224.81 239.406C225.801 239.367 226.188 239.947 226.476 240.262C226.761 240.623 226.956 240.973 227.136 241.323L227.13 241.313C235.712 257.641 244.108 273.621 248.981 282.954C256.918 298.154 258.857 301.862 266.744 316.352C266.748 316.36 266.751 316.364 266.752 316.368C267.513 317.621 269.366 318.38 271.094 318.184C271.807 318.104 272.547 317.879 273.189 317.518L273.203 317.511C280.47 313.748 288.852 309.495 296.268 305.85C301.257 303.399 300.214 304.123 295.283 306.765C288.072 310.629 282.075 313.65 278.426 315.77C276.66 316.797 275.138 317.679 273.711 318.494L273.737 318.48C272.933 318.965 272.108 319.242 271.219 319.37C269.232 319.577 267.056 319.138 265.62 316.941L265.625 316.952C264.394 314.68 263.034 312.067 261.275 308.598C256.465 299.114 253.623 294.953 250.751 289.46C247.88 283.968 248.209 283.907 233.113 256.244C230.339 251.16 227.797 246.497 225.46 242.208L225.455 242.195C225.305 241.911 225.141 241.645 224.989 241.461C224.984 241.456 224.979 241.451 224.974 241.446C221.974 251.405 219.636 262.118 217.805 269.57C221.13 269.397 224.084 269.244 226.767 269.104C228.465 269.015 230.427 268.92 232.598 268.821C235.182 268.541 237.436 270.881 237.627 273.382C237.638 273.487 237.649 273.592 237.66 273.697L237.666 273.774C237.993 282.031 238.366 292.106 238.776 302.048L238.777 302.066C238.854 304.352 237.329 306.897 234.694 307.193C234.598 307.203 234.502 307.213 234.407 307.223L234.347 307.228C230.767 307.411 227.254 307.598 223.905 307.789C219.611 308.032 214.336 308.317 208.551 308.624C207.431 313.207 206.222 318.121 205.174 323L205.156 323.082C204.801 324.823 203.21 327.217 200.841 327.335C199.862 327.441 198.924 327.288 198.101 327.084C190.043 325.457 182.153 323.867 175.446 322.53L175.412 322.522C172.545 322.09 170.06 319.204 170.002 316.667C169.969 314.288 170.286 312.675 170.466 310.991C172.698 295.139 173.211 295.22 175.908 282.561C178.736 269.987 180.098 259.872 184.42 244.701C189.004 229.622 189.85 227.366 196.652 210.657C199.079 205.096 201.889 199.592 205.326 195.004C200.975 194.721 196.608 193.851 188.998 190.997C171.727 182.605 174.359 158.043 173.658 149.45C173.638 148.32 173.624 147.117 173.618 145.838C173.75 136.843 173.214 125.13 177.691 113.607C182.569 98.5774 203.255 95.9089 217.413 96.0073ZM351.458 175.782C354.01 175.544 355.133 175.43 358.299 176.208C361.433 177.061 363.104 177.129 364.848 178.263C365.422 178.664 365.762 178.991 366.248 179.517C367.1 180.531 368.96 182.447 370.073 188.733C370.93 193.839 370.96 197.713 371.042 200.756C371.089 203.389 371.055 205.407 370.994 207.08C370.784 209.176 370.79 212.962 369.542 216.68C370.285 217.134 370.846 217.868 371.041 218.623L371.054 218.668C372.524 224.315 373.909 229.593 374.801 232.756C376.444 238.583 376.509 239.694 377.197 243.127C377.256 243.1 377.315 243.071 377.375 243.043C380.746 241.505 383.722 240.23 387.258 239.277C389.535 238.677 392.066 238.213 395.036 238.214C402.541 238.666 403.874 239.027 411.491 242.967C419.207 247.443 422.449 256.172 423.499 259.669C423.835 260.682 424.001 261.448 424.113 262.162C424.352 264.014 424.413 265.315 424.432 269.203C424.26 274.593 423.097 277.854 420.779 281.907C419.004 286.503 407.772 295.799 402.549 297.068C401.058 297.678 399.433 298.148 397.799 298.458C394.144 299.173 390.518 298.981 388.095 298.717C386.998 298.603 386.143 298.452 385.493 298.315C385.218 298.257 385.094 298.198 385.1 298.162C385.108 298.116 385.314 298.103 385.669 298.148C387.397 298.363 390.022 298.544 393.064 298.182C395.026 297.943 396.36 297.688 397.591 297.443C399.884 296.916 401.956 296.662 406.406 294.336C412.951 290.443 416.512 287.05 420.608 279.181C423.34 272.626 423.149 269.54 422.068 262.581C421.707 260.794 421.213 258.75 420.319 256.375C418.005 250.527 415.213 248.048 412.476 246.066C409.632 244.189 406.536 242.535 400.486 241.553C396.527 240.961 392.092 241.126 387.807 241.958C383.94 242.695 380.227 243.995 377.099 245.673L375.648 246.46L375.258 244.884C374.151 240.289 373.173 236.252 372.423 233.413C371.887 231.381 371.298 229.161 370.671 226.792L368.707 219.325C368.67 219.209 368.619 219.108 368.562 219.022C367.999 220.122 367.293 221.183 366.397 222.152C365.947 222.591 365.462 222.974 364.971 223.305C361.224 225.853 354.545 226.408 349.123 226.595C351.107 234.102 353.225 242.017 355.005 249.433C357.84 261.241 361.879 277.927 363.69 285.65C365.331 292.647 365.849 294.849 367.434 300.676C367.585 301.182 367.987 301.637 368.556 301.816C368.846 301.909 369.17 301.927 369.485 301.86C373.592 300.747 378.888 299.434 383.46 298.459C385.976 297.924 385.454 298.229 382.972 298.958C379.343 300.026 376.319 300.737 374.486 301.427C372.608 302.135 371.283 302.629 369.789 303.08L369.742 303.09C368.498 303.42 366.723 302.737 366.26 301.021L366.252 300.994C366.094 300.308 365.928 299.548 365.749 298.684C364.748 293.866 363.644 291.76 362.987 288.97C362.329 286.181 362.65 286.146 358.763 272.103C354.876 258.06 352.815 250.343 351.375 245.016C350.297 241.024 348.554 233.722 346.761 226.66C345.877 226.68 345.053 226.698 344.313 226.719C344.713 227.326 344.929 228.062 344.847 228.809C344.784 230.007 344.683 231.28 344.505 232.669C343.798 238.213 343.245 238.997 342.681 245.372C342.117 251.746 341.13 258.08 341.024 260.933C340.917 263.786 340.308 264.025 340.014 268.062C339.72 272.099 339.388 274.529 338.831 278.028C338.273 281.527 336.978 292.321 336.795 296.277C336.628 299.918 335.876 303.97 335.462 306.687C335.424 306.95 335.34 307.192 335.227 307.402C334.767 308.236 333.966 308.482 333.448 308.465C333.221 308.459 333.123 308.401 333.127 308.366H333.128C333.134 308.318 333.287 308.301 333.545 308.265C334.188 308.196 335 307.584 335.046 306.643C335.102 305.7 335.154 304.637 335.194 303.487C335.346 299.045 335.741 298.6 336.207 292.629C336.672 286.659 336.728 283.048 337.67 276.065C338.612 269.082 337.919 267.382 339.447 257.545C340.974 247.709 340.18 246.573 341.095 236.708C341.337 234.095 341.642 231.306 341.97 228.507C342.016 228.14 341.832 227.916 341.583 227.871C334.872 227.052 328.457 226.183 324.664 225.811C323.945 225.741 323.195 225.668 322.419 225.593C322.036 225.556 321.645 225.849 321.599 226.368C321.11 231.405 320.525 237.282 319.797 243.38C318.794 251.788 318.003 262.215 316.814 271.488C315.625 280.76 313.976 293.874 313.159 299.926C312.92 301.695 312.734 303.073 312.578 304.284C312.452 305.178 313.15 305.976 313.968 306.053C315.637 306.239 317.38 306.403 320 306.628C323.366 306.918 327.988 307.464 331.872 308.107C333.826 308.43 333.362 308.546 331.375 308.416C328.468 308.225 326.099 307.9 324.586 307.947C321.563 308.04 320.279 308.063 316.541 307.431C315.52 307.259 314.641 307.16 313.859 307.101C312.192 306.948 311.189 305.479 311.275 304.147C311.29 303.45 311.318 302.79 311.411 302.094C311.703 299.907 312.017 299.976 312.944 288.797C313.871 277.618 314.45 271.496 314.835 267.266C315.22 263.036 316.423 254.245 317.046 247.351C317.52 242.112 318.535 232.777 319.184 226.114C319.293 224.338 321.093 222.94 322.674 223.169C322.731 223.174 322.787 223.178 322.842 223.183C322.543 222.969 322.238 222.736 321.931 222.478C321.907 222.454 321.883 222.43 321.859 222.406C318.482 218.131 319.23 216.964 318.17 211.65C317.59 207.6 317.71 203.542 317.709 200.756C317.712 199.788 317.706 198.979 317.667 198.366C317.534 195.935 318.084 195.719 318.205 192.278C318.393 188.85 318.747 186.72 319.935 183.872C320.357 182.936 321.095 181.27 322.601 179.877C325.664 177.061 330.724 176.609 332.853 176.145C336.167 175.508 340.003 175.812 342.281 175.881C342.996 175.903 343.547 175.941 343.981 175.983C344.164 176.001 344.251 176.039 344.25 176.076C344.25 176.122 344.117 176.167 343.882 176.173C342.758 176.205 341.059 176.291 339.074 176.531C335.401 177.043 334.921 176.58 330.044 177.561C327.22 178.237 325.097 179.125 323.453 180.762C322.324 181.908 321.467 183.51 320.76 185.746C319.311 191.264 320.163 192.77 319.588 200.756C319.582 200.863 319.577 200.971 319.571 201.08C319.343 209.285 319.725 210.605 322.222 217.78C322.662 218.708 323.215 219.566 323.929 220.256C328.872 224.375 338.327 224.083 342.363 224.291C342.972 224.292 343.587 224.29 344.25 224.284C344.893 224.269 345.561 224.254 346.25 224.241C346.239 222.802 347.181 221.66 348.467 221.222L348.521 221.207C349.289 221.005 350.045 220.805 350.782 220.607C354.895 219.5 361.039 217.915 367.12 216.341L367.163 216.331C368.408 212.513 368.424 207.716 368.708 203.636C368.753 202.709 368.787 201.764 368.814 200.756C369.031 193.396 368.717 183.844 365.467 180.703C365.408 180.637 365.348 180.573 365.289 180.511C361.726 177.511 360.006 177.574 355.323 176.941C352.521 176.669 348.626 176.453 345.326 176.206C343.665 176.083 344.044 175.917 345.717 175.849C348.17 175.754 350.184 175.912 351.458 175.782ZM564.319 208.409C565.859 206.777 568.17 207.171 569.381 207.854C569.879 208.116 570.316 208.349 570.663 208.524C572.501 209.482 572.313 209.804 573.515 210.954C574.686 212.118 576.253 212.331 577.608 213.842C578.855 215.26 578.801 215.822 580.125 217.199L580.173 217.255C580.259 217.361 580.351 217.473 580.448 217.596C580.976 218.263 581.461 219.201 581.431 220.239C581.353 221.747 580.526 222.589 580.12 223.179L580.076 223.231C579.918 223.414 579.793 223.576 579.7 223.724C579.151 224.594 578.659 224.277 577.756 225.392C576.843 226.506 576.155 227.065 575.089 227.764C574.877 227.918 574.574 228.128 574.217 228.375C577.081 228.649 579.976 228.753 583.675 229.443C585.258 229.738 586.451 229.998 587.497 230.24L587.51 230.242C588.399 230.437 589.394 230.92 589.962 231.842C590.527 232.759 590.535 233.742 590.406 234.606L590.399 234.656C590.132 235.924 589.849 237.431 589.506 239.559C589.161 241.701 588.753 243.83 588.354 245.822C590.481 246.226 592.383 246.592 593.88 246.836C594.953 246.973 595.663 247.691 596.017 248.298C596.402 248.955 596.475 249.623 596.405 250.177L596.393 250.25C596.034 251.976 595.52 252.702 595.003 256.008C594.376 260.019 593.845 262.432 593.006 265.871L593.002 265.886C592.995 265.914 592.987 265.942 592.979 265.97C592.77 266.79 591.79 268.029 590.259 267.829C590.196 267.82 590.133 267.81 590.069 267.801L590.048 267.798C588.343 267.476 586.272 267.104 584.175 266.745C583.755 270.183 583.672 273.599 583.923 275.439C584.271 278.624 585.019 282.373 587.373 283.774C587.836 284.086 588.294 284.36 588.67 284.682C589.176 285.08 589.447 285.714 589.333 286.181C589.292 286.381 589.213 286.52 589.145 286.653C589.04 286.847 588.962 286.92 588.928 286.906C588.885 286.886 588.916 286.725 589.015 286.471C589.054 286.368 589.092 286.256 589.101 286.155C589.229 285.301 588.179 284.745 587.118 284.208C586.45 283.869 585.786 283.36 585.216 282.705C582.604 278.764 583.139 277.882 582.92 271.852C582.94 269.772 583.038 267.985 583.171 266.243L583.266 265.511L583.972 265.636C586.005 265.887 587.971 266.138 590.242 266.497C590.298 266.503 590.354 266.51 590.411 266.516C590.895 266.59 591.472 266.217 591.63 265.587C591.745 265.037 591.867 264.465 591.998 263.869C593.252 258.148 593.101 255.94 594.318 249.885C594.375 249.408 594.07 248.827 593.615 248.745L593.557 248.737C593.114 248.642 592.653 248.539 592.172 248.431C590.152 247.976 588.497 247.646 587.056 247.393L586.249 247.241L586.407 246.458C587.272 241.854 587.317 239.44 587.982 234.26L587.973 234.326C588.002 233.939 587.947 233.586 587.853 233.422C587.757 233.267 587.692 233.191 587.332 233.073C587.245 233.047 587.145 233.024 587.037 233.006C582.049 232.241 576.476 231.227 571.435 230.295C570.739 230.778 570.115 231.217 569.732 231.508C569.527 231.68 569.302 231.832 569.065 231.971C568.357 232.499 567.526 232.536 566.84 232.38C566.548 233.854 566.305 235.17 566.123 236.267C565.788 238.28 565.434 240.532 565.042 242.96L564.822 244.165L563.653 243.939C561.744 243.612 559.728 243.262 557.637 242.891C557.186 242.847 556.783 243.142 556.684 243.585C556.281 245.69 555.857 247.852 555.412 250.041C554.83 252.898 554.253 255.993 553.668 259.199C553.619 259.596 554.015 260.135 554.4 260.201C556.747 260.581 559.129 260.968 561.499 261.366L562.628 261.574L562.506 262.681C562.23 265.63 562.012 268.567 561.881 271.398C561.676 276.035 561.74 281.728 563.315 286.615C564.792 291.568 568.317 295.045 570.836 296.671C574.114 298.813 576.072 299.477 578.467 300.288L578.502 300.301C578.708 300.398 578.959 300.435 579.257 300.465C580.335 300.646 581.373 299.837 582.141 298.409C582.185 298.331 582.227 298.255 582.271 298.174C583.861 295.19 586.123 291.238 588.193 287.971C589.263 286.282 589.187 286.757 588.282 288.552C586.958 291.178 585.722 293.251 585.167 294.674C584.506 296.372 584.065 297.485 583.38 298.792C582.842 299.636 582.281 301.11 580.121 301.54C579.769 301.582 579.437 301.566 579.135 301.522C578.851 301.478 578.477 301.427 578.115 301.265C575.491 300.385 573.867 300.092 572.153 299.167C571.154 298.601 570.682 298.256 569.274 297.224C567.976 296.128 565.194 294.514 562.516 289.186C558.131 278.166 559.771 271.496 559.65 267.268C559.698 266.263 559.792 265.018 559.931 263.59C558.083 263.252 556.057 262.877 553.993 262.504L553.95 262.497C552.301 262.124 551.215 260.569 551.394 258.915L551.406 258.833C551.74 257.112 552.059 255.411 552.337 253.811C552.818 251.052 553.544 247.158 554.299 243.12L554.303 243.098C554.589 241.474 556.317 240.23 557.942 240.472L558.017 240.483C559.664 240.774 561.295 241.059 562.841 241.329C563.189 239.165 563.487 237.271 563.688 235.877C564.034 233.475 564.311 232.096 564.588 230.964L564.592 230.948C564.604 230.905 564.616 230.862 564.627 230.819C564.002 229.81 564.483 228.776 564.709 228.212C564.814 227.937 564.952 227.705 565.108 227.51C565.268 227.277 565.425 227.081 565.616 226.901C565.901 226.632 566.257 226.399 566.818 226.119C568.022 225.517 568.192 224.708 568.833 224.292C569.46 223.856 569.721 224.186 572.474 221.437C572.859 221.043 573.215 220.671 573.547 220.32C572.274 219.231 571.385 218.506 570.671 217.955C569.54 217.058 567.269 215.001 565.25 213.632C565.243 213.628 565.237 213.623 565.23 213.619C565.104 213.533 564.97 213.441 564.83 213.343C563.54 212.645 562.751 209.911 564.319 208.409ZM557.224 203.988C557.487 203.978 557.732 204.004 557.958 204.055C558.884 204.285 559.866 204.988 559.712 206.703C559.618 207.304 559.417 207.759 559.211 208.135C558.856 208.814 558.787 209.387 558.424 209.866C557.909 210.545 557.649 210.36 555.5 214.121C553.35 217.881 552.111 219.904 551.268 221.31C550.425 222.716 548.331 225.432 546.96 227.725C545.745 229.759 543.222 233.53 541.931 235.699C541.666 236.129 541.344 236.453 541.049 236.69C540.616 237.02 540.215 237.215 539.852 237.327C539.997 237.635 540.091 237.934 540.145 238.191C540.293 238.93 540.231 239.368 540.232 239.731C540.169 242.411 539.971 243.831 540.241 248.128C540.357 249.975 540.426 251.824 540.478 253.56C540.64 255.142 539.272 256.851 537.875 257.058C537.281 257.181 536.932 257.137 536.575 257.142L536.522 257.141C535.075 257.039 533.864 257.164 533.063 257.367C532.64 257.473 532.291 257.559 531.979 257.628C530.89 257.897 530.169 257.851 528.631 258.587C528.652 258.649 528.673 258.712 528.695 258.775C529.859 262.098 530.419 264.158 531.149 267.154C531.879 270.15 534.522 279.23 535.761 282.446C536.812 285.173 537.529 288.367 538.093 290.667L538.097 290.68C538.109 290.744 538.121 290.807 538.133 290.87C538.211 291.26 538.174 291.637 538.073 291.956C537.819 292.739 537.227 293.124 536.792 293.254C536.603 293.311 536.506 293.289 536.498 293.254C536.487 293.208 536.605 293.141 536.808 293.04C537.393 292.774 537.985 291.902 537.685 290.982L537.631 290.81C537.397 290.184 537.135 289.507 536.848 288.792C535.409 285.2 535.613 284.696 533.919 279.769C532.226 274.842 530.994 271.948 529.379 266.034C528.479 262.735 527.693 260.938 526.811 258.534L526.573 257.717L527.299 257.344C528.378 256.703 529.667 256.022 531.464 255.585C532.665 255.299 534.069 255.147 535.685 255.244C536.009 255.263 536.322 255.29 536.624 255.321L536.572 255.32C536.935 255.339 537.296 255.345 537.437 255.32C538.374 255.135 538.723 254.408 538.674 253.632C538.428 249.412 537.81 247.29 537.439 240.893C537.419 240.553 537.399 240.21 537.381 239.864C537.359 239.42 537.342 239.038 537.3 238.907C537.212 238.589 537.145 238.527 537.053 238.46C536.955 238.387 536.643 238.294 536.233 238.285C533.155 238.329 530.009 238.695 527.174 239.338C523.529 240.155 520.398 241.378 518.379 242.371C516.877 243.106 515.244 244.009 513.545 245.075L513.271 245.2C510.032 246.226 506.412 247.359 502.616 248.488L502.555 248.504C502.305 248.539 502.002 248.903 502.018 249.357C502.019 249.423 502.027 249.49 502.042 249.557C504.101 256.536 506.998 264.925 509.152 272.582C511.354 280.41 514.5 291.469 515.899 296.595C515.982 296.901 516.062 297.193 516.138 297.473L516.145 297.497C516.342 298.49 517.393 298.804 518.144 298.617C520.466 297.958 522.098 297.445 525.397 296.338C528.183 295.404 532.065 294.258 535.399 293.464C537.076 293.065 536.753 293.336 535.123 293.926C532.739 294.789 530.731 295.334 529.546 295.917C527.179 297.083 526.168 297.562 522.955 298.314C520.918 298.79 519.641 299.358 518.508 299.839L518.458 299.854C517.558 300.155 516.452 300.087 515.608 299.335C515.108 298.875 514.882 298.363 514.778 297.841L514.792 297.891C514.517 296.648 514.165 295.005 511.74 287.825C508.617 278.579 506.974 273.489 505.824 269.978C504.674 266.467 502.655 259.016 500.777 253.294C500.482 252.396 500.146 251.349 499.783 250.205L499.765 250.143C499.362 248.722 500.047 246.684 501.968 246.172L501.909 246.189C505.334 245.123 509.162 243.944 512.404 242.923C514.309 241.738 516.044 240.806 517.287 240.16C521.833 237.919 522.029 238.296 525.977 237.339C526.199 237.292 526.418 237.243 526.634 237.194C529.618 236.529 532.175 235.61 535.63 235.347C535.097 234.379 534.928 233.201 535.452 232.088C535.739 231.341 536.06 230.555 536.652 229.75C537.93 228.011 538.499 227.995 539.754 225.869C541.01 223.742 542.623 221.846 543.06 220.82C543.497 219.794 544.048 220.013 544.79 218.635C545.531 217.257 546.11 216.505 547.011 215.463C547.913 214.422 550.331 210.994 550.967 209.589C551.603 208.185 552.888 206.946 553.538 206.122C553.74 205.865 553.914 205.671 554.056 205.53C554.117 205.47 554.17 205.458 554.201 205.478C554.239 205.503 554.244 205.579 554.191 205.671C553.932 206.122 553.572 206.814 553.213 207.673C552.544 209.277 552.153 209.246 551.03 211.269C549.907 213.292 549.42 214.63 547.766 216.795C546.113 218.96 546.501 219.957 544 222.904C541.5 225.851 542.04 226.684 540.06 229.954C539.356 231.117 538.517 232.345 537.672 233.531C537.387 233.846 537.44 234.381 537.968 234.725C538.517 235.093 539.286 234.964 539.594 234.7C539.714 234.608 539.814 234.497 539.887 234.372C541.038 232.514 542.472 230.18 544.124 227.831C546.002 225.158 547.945 221.613 550.087 218.707C552.23 215.801 555.232 211.675 556.666 209.799C557.433 208.796 557.889 208.197 558.322 207.558C558.637 207.094 558.786 206.38 558.26 205.652C558.072 205.402 557.808 205.168 557.476 204.995C556.662 204.549 555.441 204.577 554.599 205.188C554.306 205.402 554.182 205.511 554.148 205.435C554.119 205.365 554.195 205.107 554.49 204.801C555.409 203.899 556.558 204.013 557.224 203.988ZM454.534 205.43C454.933 206.213 455.27 206.974 455.557 207.691C456.271 207.614 456.923 207.566 457.498 207.538C461.347 207.413 462.91 207.617 465.644 207.948C465.889 207.352 466.176 206.699 466.541 205.964C466.607 205.831 466.676 205.697 466.748 205.56L466.882 205.323L467.137 205.372C469.777 205.759 473.169 206.806 475.794 208.213C477.186 208.97 476.789 208.955 475.316 208.399C473.155 207.606 471.362 206.997 470.168 206.893C469.137 206.806 468.368 206.767 467.594 206.692C467.318 207.233 466.995 207.838 466.6 208.607L466.37 209.187L465.72 209.099C465.631 209.079 465.541 209.058 465.448 209.037C462.548 208.402 461.119 208.966 459.429 208.938C458.309 208.955 457.919 208.76 455.323 209.096L454.709 209.202L454.447 208.606C454.225 208.061 453.934 207.419 453.535 206.667C452.702 206.84 451.759 207.07 450.696 207.393C448.539 208.05 446.699 208.815 445.114 209.585C442.62 213.627 441.5 216.514 440.743 218.713C439.589 221.759 437.953 228.512 438.495 233.907C438.522 234.271 438.555 234.66 438.594 235.071C441.234 236.996 445.029 239.06 448.618 240.255C448.685 240.229 448.753 240.205 448.822 240.179C449.254 239.525 449.636 238.885 449.966 238.279C448.644 237.74 447.771 237.243 447.096 236.807L445.375 235.808L446.991 234.57C447.349 234.324 447.667 234.109 447.98 233.906L448.576 233.421L449.316 233.76C450.19 234.274 450.93 234.779 452.625 235.437C455.241 236.409 457.655 236.287 460.527 236.14C461.31 236.095 462.136 236.041 463.03 235.98C466.991 235.564 467.93 235.789 471.861 234.014L472.414 233.736L472.923 234.146C473.086 234.278 473.257 234.411 473.436 234.542C473.57 234.639 473.704 234.733 473.837 234.823L475.123 235.68L473.784 236.518C472.778 237.145 471.723 237.68 470.67 238.123C471.057 238.862 471.459 239.55 471.857 240.173C472.172 240.263 472.48 240.353 472.784 240.447C473.234 240.282 473.623 240.12 473.939 239.965C475.903 238.956 476.385 239.436 479.103 237.8C480.616 236.849 481.757 236.067 482.879 235.286C482.986 234.453 483.091 233.605 483.181 232.652C483.689 229.881 482.603 221.264 481.083 218.468C479.852 215.619 478.566 212.303 477.501 210.421C477.177 209.836 476.923 209.371 476.735 209.01C476.655 208.858 476.642 208.77 476.672 208.75C476.711 208.724 476.818 208.801 476.945 208.983C477.56 209.864 478.477 211.182 479.511 212.795C481.36 215.854 481.311 216.33 482.856 220.886C484.201 225.498 484.928 228.471 484.476 234.168C484.421 234.748 484.368 235.278 484.32 235.779L484.282 236.118L484.028 236.302C481.132 238.318 479.786 239.91 475.667 241.482C479.647 243.172 484.418 246.277 487.137 251.107C490.672 257.072 490.594 263.946 490.221 267.581C490.082 268.981 489.88 270.091 489.637 271.048C488.31 275.097 487.417 276.654 482.707 278.618C481.318 279.079 479.977 279.315 478.658 279.463C474.402 279.877 470.352 280.093 464.903 279.188C463.591 278.958 462.484 278.714 461.513 278.463L461.461 278.452C460.733 278.241 459.825 277.837 459.272 276.981C458.742 276.131 458.745 275.393 458.72 274.831L458.723 274.863C458.644 272.303 458.613 270.008 458.455 265.27C458.452 265.14 458.451 265.01 458.452 264.875C458.452 264.804 458.452 264.741 458.455 264.662C458.456 264.627 458.457 264.585 458.46 264.535C458.466 264.487 458.459 264.445 458.5 264.269C458.627 263.561 459.327 262.719 460.049 262.489C460.756 262.224 461.355 262.224 461.908 262.23C463.074 262.256 464.235 262.297 465.314 262.289C465.842 262.283 466.388 262.26 466.746 262.177C466.904 262.141 466.971 262.1 466.98 262.095C466.982 262.104 467.042 262.014 467.093 261.82C467.095 261.787 467.099 261.698 467.087 261.626C467.074 261.505 467.046 261.368 467.008 261.231C466.933 260.956 466.823 260.679 466.691 260.418C466.426 259.895 466.074 259.436 465.682 259.059C464.896 258.301 463.954 257.884 463.11 257.684C462.557 257.552 462.053 257.513 461.626 257.526C460.063 257.609 459.222 257.84 458.222 258.204C457.264 258.607 456.011 259.215 454.757 261.264C454.098 262.387 453.702 263.496 453.435 264.559C452.775 267.399 452.791 269.906 453.783 272.852C454.368 275.771 459.724 281.176 465.634 282.282C466.339 282.461 467.018 282.628 467.657 282.694L467.707 282.703C467.769 282.718 467.831 282.733 467.893 282.749C469.714 283.172 470.916 284.997 470.502 286.367C470.449 286.574 470.393 286.682 470.339 286.807C468.56 290.219 465.95 293.368 463.837 295.891L463.828 295.903C463.042 296.756 462.081 297.344 461.19 297.55C460.097 297.811 459.219 297.633 458.596 297.47C458.329 297.396 458.218 297.325 458.226 297.29C458.239 297.244 458.437 297.253 458.777 297.311C460.047 297.581 462.106 297.297 463.376 295.512L463.368 295.523C463.705 295.049 464.052 294.543 464.402 294.017C466.731 290.401 467.856 289.306 469.625 286.142C469.909 285.285 469.245 284.054 467.831 283.629C467.78 283.615 467.728 283.602 467.678 283.59C467.629 283.579 467.579 283.567 467.53 283.555C466.758 283.48 466.066 283.314 465.408 283.167C459.606 281.671 453.876 279.314 451.802 271.033C451.286 268.288 451.478 266.109 451.893 264.164C452.373 262.084 453.149 260.148 454.851 258.324C456.494 256.59 459.568 254.713 463.593 255.794C464.398 256.022 465.223 256.381 465.997 256.932C467.841 258.37 468.953 259.942 468.819 262.252C468.726 262.618 468.519 263.18 468.043 263.524C467.587 263.852 467.172 263.921 466.83 263.986C466.133 264.095 465.556 264.101 464.985 264.12C463.863 264.146 462.854 264.153 461.861 264.175C461.42 264.185 461.002 264.25 460.78 264.369C460.561 264.502 460.579 264.527 460.523 264.787C460.708 266.87 460.953 270.288 461.393 274.6L461.397 274.639C461.423 274.957 461.478 275.227 461.528 275.328C461.575 275.416 461.561 275.395 461.646 275.457C461.726 275.51 461.911 275.588 462.147 275.648C467.313 276.684 473.223 277.419 478.481 277.176C483.358 277.121 486.507 273.86 487.2 270.424C487.485 269.334 487.661 268.252 487.768 267.328C488.829 260.277 486.355 249.33 476.832 244.632C475.383 243.845 473.787 243.181 472.09 242.635C472.088 242.636 472.086 242.637 472.083 242.637L471.423 242.828L471.069 242.324C470.713 242.221 470.353 242.122 469.99 242.03C463.763 240.345 456.531 240.251 450.273 242.36C450.253 242.388 450.234 242.418 450.213 242.447L449.681 243.151L448.885 242.888C448.877 242.886 448.869 242.883 448.861 242.88C447.137 243.573 445.502 244.442 444.002 245.508C439.333 248.58 435.097 254.354 433.474 260.541C431.686 266.848 432.569 273.099 433.759 276.707C436.401 283.762 437.758 285.494 443.352 290.14C446.688 292.724 451.955 295.325 456.693 296.764C456.853 296.815 457 296.862 457.135 296.905C458.682 297.399 458.486 297.47 457.063 297.188C456.767 297.129 456.421 297.052 456.034 296.957C452.446 296.078 449.687 294.738 447.907 294.031C444.37 292.531 442.751 291.762 439.395 288.178C436.211 284.477 434.682 282.659 433.464 280.034C432.905 278.702 432.698 278.017 432.12 275.925C431.668 273.842 430.38 270.237 431.244 262.965C431.381 261.975 431.562 261.021 431.781 260.107C434.755 248.909 441.116 244.187 445.614 241.735C443.093 240.71 440.529 239.346 438.132 237.624C437.685 237.303 437.234 236.969 436.783 236.623L436.367 236.297L436.331 235.812C435.674 229.296 436.525 221.216 439.691 214.875C440.713 212.744 442.053 210.441 443.594 208.249L443.752 208.019L443.976 207.919C447.267 206.477 450.816 205.533 453.859 205.105L454.326 205.033L454.534 205.43ZM388.103 258.253C388.933 258.011 389.853 257.844 391.081 257.985C393.364 258.424 394.548 257.584 397.114 260.183C399.147 262.977 400.009 262.86 401.291 266.17C401.392 266.49 401.48 266.828 401.551 267.169C402.375 270.524 400.829 274.384 399.786 275.933C398.763 277.773 396.669 279.965 393.87 280.997C392.978 281.336 392.006 281.65 390.977 281.878C389.372 282.243 387.587 282.419 385.901 282.234L385.002 282.118L384.835 281.338C384.719 280.848 384.612 280.36 384.522 279.877C383.968 276.927 383.154 272.765 382.833 270.828C382.511 268.89 382.429 268.419 381.844 266.626C381.508 265.596 381.188 264.14 381.094 262.863C381.077 262.625 381.092 262.488 381.13 262.441C381.125 262.437 381.119 262.433 381.115 262.428C381.086 262.392 381.097 262.325 381.165 262.266C381.491 261.978 381.968 261.535 382.537 260.981C383.627 259.97 383.918 260.157 385.668 259.259C386.553 258.834 387.287 258.499 388.103 258.253ZM390.479 259.339C390.048 259.269 389.228 259.254 388.337 259.396C387.024 259.587 385.597 260.156 384.995 260.597C383.982 261.315 382.591 261.709 381.833 262.145C381.598 262.278 381.406 262.372 381.251 262.439C381.241 262.444 381.23 262.446 381.22 262.449C381.29 262.508 381.381 262.668 381.479 262.915C381.826 263.787 381.947 264.547 382.267 264.959C382.906 265.784 383.162 266.14 383.24 267.373C383.317 268.605 383.986 269.02 384.105 269.719C384.224 270.418 383.912 270.489 385.062 273.901C386.025 276.759 386.574 278.549 386.963 279.819C387.969 279.876 389.273 279.892 390.519 279.639C390.968 279.553 391.399 279.436 391.794 279.291C393.796 278.771 397.142 276.252 397.671 274.664C398.292 273.204 398.582 273.345 399.136 272.105C399.624 270.797 398.811 269.699 398.7 268.177C398.687 268.029 398.677 267.891 398.667 267.76C398.549 266.538 398.82 266.013 397.993 264.504C397.079 262.865 395.927 261.35 395.124 261.061C394.354 260.795 394.571 260.206 393.4 259.902C392.234 259.663 391.556 259.523 390.479 259.339ZM468.535 237.885C468.041 238.045 467.511 238.199 466.939 238.342C466.319 238.495 465.68 238.622 465.028 238.728C466.515 238.903 467.986 239.163 469.402 239.515C469.094 238.955 468.819 238.438 468.566 237.952L468.535 237.885ZM452.794 238.104C452.617 238.469 452.427 238.839 452.226 239.213C453.435 238.961 454.745 238.765 456.118 238.634C455.017 238.433 453.945 238.17 452.921 237.859L452.794 238.104ZM525.992 208.051C527.372 207.569 529.054 206.715 530.917 208.242C531.333 208.623 531.702 209.186 531.836 209.875C532.11 211.941 531.03 212.747 530.181 213.284C530.037 213.357 529.889 213.438 529.731 213.533C529.384 213.741 528.997 214.009 528.514 214.405C526.775 215.82 524.837 216.932 524.21 217.72C523.587 218.5 523.124 218.126 522.167 219.166C521.738 219.638 521.368 220.004 520.998 220.333C521.073 220.429 521.152 220.527 521.232 220.629C521.978 221.635 524.762 224.227 526.021 224.86C527.253 225.517 528.285 226.78 528.991 227.424C529.003 227.435 529.014 227.446 529.026 227.457C529.229 227.644 529.381 227.805 529.493 227.938C529.543 227.998 529.548 228.049 529.526 228.079C529.498 228.116 529.428 228.12 529.346 228.067C529.198 227.97 529.021 227.859 528.816 227.739C528.47 227.536 528.05 227.309 527.568 227.081C526.136 226.395 526.198 226.03 524.439 224.85C522.691 223.654 521.5 223.041 519.832 221.174C519.702 221.029 519.582 220.9 519.459 220.776L518.904 220.195L519.459 219.702C520.981 218.334 521.029 217.256 523.858 215.522C526.433 214.005 526.686 213.149 528.303 211.608C528.422 211.495 528.549 211.38 528.683 211.261C528.772 211.164 528.837 211.062 528.88 210.961C528.974 210.713 528.983 210.524 528.779 210.247C528.552 209.869 527.664 209.706 526.915 210.065C525.702 210.649 524.673 211.228 524.014 211.708C522.367 212.883 520.402 214.736 518.29 216.774C517.714 217.324 517.13 217.945 516.539 218.604C516.077 219.2 515.789 219.811 515.819 220.239C515.823 220.66 516.124 221.236 516.595 221.84C517.034 222.331 517.463 222.821 517.87 223.309C519.901 225.859 523.184 228.973 524.944 230.181C525.565 230.646 526.028 230.966 526.451 231.237L526.501 231.273L526.489 231.262C527.066 231.72 527.831 231.962 528.875 231.491C529.117 231.368 529.362 231.199 529.572 230.977C530.183 230.386 530.328 229.282 529.766 228.462C529.583 228.186 529.498 228.06 529.572 228.029C529.641 228.003 529.871 228.078 530.146 228.352C530.984 229.21 530.752 230.338 530.63 230.95C530.581 231.243 530.485 231.499 530.365 231.721C529.932 232.479 529.197 233.009 527.861 232.847C526.951 232.695 526.337 232.504 525.784 232.244L525.856 232.295C525.485 232.19 525.157 232.109 524.863 231.902C524.233 231.401 524.316 231.311 520.969 229.036C517.697 226.631 516.242 224.976 515.155 223.936C515.02 223.802 514.877 223.649 514.716 223.472L514.656 223.401C514.19 222.771 513.423 221.775 513.43 220.239C513.471 218.908 514.193 217.909 514.77 217.167L514.825 217.103C515.09 216.814 515.345 216.53 515.583 216.253C517.136 214.363 520.912 210.934 522.597 209.691C524.174 208.432 524.427 208.694 525.822 208.121C525.877 208.097 525.934 208.074 525.992 208.051ZM525.716 232.195L525.705 232.186C525.704 232.186 525.703 232.186 525.702 232.185L525.716 232.195ZM568.83 229.831C568.193 229.741 567.814 229.838 567.608 230.034C567.367 230.238 567.165 230.766 567.03 231.436L566.975 231.708C567.031 231.699 567.088 231.69 567.145 231.676C567.821 231.499 568.114 231.341 568.47 231.132L568.441 231.156L568.525 231.096C568.952 230.885 569.451 230.652 570.235 230.075C569.87 230.007 569.508 229.941 569.15 229.875L569.21 229.882C569.083 229.865 568.956 229.848 568.83 229.831ZM468.66 219.473C469.715 219.439 469.67 219.834 470.289 220.308C470.842 220.799 471.902 220.47 472.493 221.357C473 222.243 472.657 222.574 473.118 223.496C473.449 224.225 473.362 225.04 473.347 225.554C473.344 225.723 473.352 225.865 473.39 225.979C473.535 226.456 472.966 226.423 472.951 227.042C472.913 227.676 472.679 228.031 472.255 228.406C471.865 228.832 470.686 229.834 470.225 230.256C469.781 230.763 468.95 230.543 468.583 230.465C468.461 230.446 468.367 230.408 468.295 230.367C468.265 230.349 468.251 230.311 468.251 230.274C468.252 230.228 468.273 230.183 468.309 230.176C468.484 230.146 468.751 230.052 468.998 229.824C469.417 229.385 469.601 229.707 470.134 229.182C470.621 228.616 470.617 228.146 471.172 227.551C471.692 226.867 470.972 226.508 471.462 225.525C471.471 225.506 471.479 225.486 471.488 225.466C471.917 224.295 470.949 224.262 470.427 223.562C469.91 222.845 469.106 221.908 468.468 221.931C468.398 221.931 468.327 221.934 468.251 221.94C467.707 221.986 467.12 222.219 466.501 222.609C465.751 223.078 465.496 224.213 465.223 225.158C465.187 225.276 465.154 225.404 465.126 225.54C464.888 226.511 465.196 227.809 465.51 228.405C465.85 229.083 466.014 229.276 466.695 229.535C467.093 229.673 467.582 229.891 468.084 230.144C468.338 230.267 468.295 230.435 468.002 230.5C467.569 230.586 467.245 230.422 466.97 230.548C466.412 230.788 466.081 230.821 465.694 230.29C465.344 229.761 464.793 229.96 464.576 229.639C464.413 229.291 464.502 229.236 463.562 227.722C463.105 226.876 462.958 226.124 462.902 225.54C462.855 225.023 462.881 224.62 462.915 224.289C462.967 223.556 463.742 222.248 464.48 221.342C465.051 220.431 467.048 219.487 468.251 219.503C468.404 219.491 468.54 219.482 468.66 219.473ZM453.21 219.473C454.266 219.441 454.22 219.837 454.837 220.311C455.39 220.802 456.45 220.472 457.042 221.357C457.55 222.241 457.208 222.573 457.67 223.494C458.003 224.223 457.917 225.039 457.902 225.554C457.899 225.723 457.907 225.865 457.945 225.98C458.089 226.457 457.52 226.424 457.504 227.043C457.467 227.677 457.233 228.032 456.809 228.407C456.418 228.833 455.238 229.834 454.777 230.256C454.333 230.762 453.502 230.543 453.135 230.465C453.012 230.446 452.919 230.408 452.847 230.367C452.817 230.349 452.803 230.311 452.803 230.274C452.803 230.228 452.824 230.183 452.86 230.176C453.035 230.146 453.303 230.052 453.549 229.824C453.969 229.385 454.153 229.707 454.687 229.182C455.174 228.616 455.17 228.146 455.726 227.551C456.246 226.867 455.527 226.508 456.017 225.525C456.025 225.506 456.034 225.487 456.042 225.467C456.471 224.297 455.502 224.265 454.979 223.566C454.46 222.849 453.652 221.908 453.015 221.931C452.944 221.931 452.872 221.934 452.795 221.941C452.252 221.987 451.667 222.219 451.049 222.608C450.299 223.077 450.044 224.212 449.771 225.158C449.735 225.276 449.702 225.404 449.674 225.54C449.436 226.511 449.745 227.808 450.06 228.404C450.401 229.082 450.565 229.274 451.246 229.534C451.644 229.672 452.134 229.891 452.636 230.144C452.889 230.268 452.846 230.435 452.553 230.5C452.12 230.586 451.796 230.421 451.521 230.547C450.963 230.787 450.632 230.82 450.246 230.289C449.895 229.76 449.344 229.959 449.126 229.639C448.964 229.291 449.053 229.237 448.112 227.723C447.653 226.877 447.506 226.124 447.45 225.54C447.403 225.023 447.429 224.62 447.462 224.288C447.515 223.555 448.29 222.247 449.028 221.341C449.598 220.432 451.59 219.488 452.795 219.504C452.951 219.492 453.089 219.482 453.21 219.473ZM568.191 209.972C567.478 209.583 566.497 209.598 566.094 210.074C565.814 210.374 565.738 210.722 565.895 211.099C565.954 211.235 566.058 211.369 566.206 211.484C566.34 211.586 566.476 211.689 566.614 211.792C568.732 213.373 571.32 215.037 573.302 217.042C574.061 217.801 574.895 218.679 575.716 219.576L576.402 220.293L575.716 220.902C573.761 222.584 571.64 224.177 570.41 224.978C568.602 226.163 568.153 226.429 566.566 227.751C566.503 227.804 566.437 227.858 566.369 227.913C566.178 228.065 565.972 228.224 565.755 228.384C565.258 228.72 564.915 229.331 564.888 229.98C565.06 229.525 565.307 229.052 565.725 228.584C566.453 227.729 567.852 227.367 569.085 227.606C569.208 227.627 569.335 227.647 569.465 227.668L569.509 227.675C569.622 227.699 569.74 227.724 569.859 227.749C570.747 227.933 571.606 228.07 572.453 228.18C573.07 227.618 573.729 227.029 574.655 226.327C576.48 224.884 576.353 223.903 578.655 221.925L578.607 221.981C578.713 221.877 578.821 221.77 578.929 221.659C579.462 221.114 579.65 220.621 579.629 220.239C579.578 219.559 579.082 219.134 578.458 218.61L578.516 218.678C577.968 218.271 577.348 217.773 576.57 217.02C574.164 214.593 571.212 211.613 569.39 210.636C569.022 210.422 568.62 210.2 568.191 209.972ZM365.851 219.179C362.882 219.939 359.812 220.717 356.689 221.484C354.272 222.078 351.732 222.725 349.112 223.405C348.821 223.493 348.538 223.914 348.515 224.188C352.349 224.073 356.637 223.786 360.756 222.69C362.242 222.253 363.715 221.587 364.818 220.512C365.204 220.105 365.545 219.658 365.851 219.179ZM337.913 187.872C339.384 187.194 341.624 186.742 343.486 186.929C344.424 187.029 344.201 187.186 343.287 187.298C341.952 187.479 340.855 187.63 340.239 187.995C339.471 188.456 339.023 188.776 338.383 189.051C338.006 189.217 337.564 189.37 336.966 189.58C335.349 190.175 335.028 191.135 334.26 191.694C334.01 191.883 333.822 191.99 333.565 192.172C333.091 192.576 331.988 193.176 330.587 196.234C330.505 196.428 330.429 196.621 330.358 196.811C329.543 199.017 329.423 200.844 329.466 202.264C329.517 203.602 329.725 204.61 329.947 205.422C330.103 205.987 330.312 206.751 330.646 207.594C331.242 209.146 332.343 210.941 333.71 212.205C333.907 212.389 334.108 212.564 334.309 212.726C335.277 213.517 336.777 214.528 338.496 215.196C340.427 215.975 342.591 216.267 344.089 216.2C344.45 216.187 344.773 216.16 345.047 216.124C347.453 215.715 347.506 216.016 349.497 215.568C349.599 215.541 349.699 215.51 349.796 215.476C351.598 214.822 352.539 213.376 354.223 211.95V211.949C355.927 210.338 356.617 210.292 357.747 207.717C357.75 207.708 357.754 207.699 357.757 207.69C358.52 205.765 358.971 203.715 358.964 202.264C358.967 201.766 358.924 201.344 358.846 201.031C358.508 199.829 359.102 199.579 358.453 197.872C358.282 197.459 358.119 197.092 357.963 196.75C357.481 195.712 357.103 194.884 356.513 193.827C356.245 193.351 355.71 192.578 354.968 191.805C353.56 190.268 351.259 188.968 350.091 188.695C350.046 188.683 349.999 188.669 349.954 188.657C348.265 188.171 346.403 187.448 345.17 187.287C344.782 187.231 344.474 187.183 344.237 187.138C344.137 187.119 344.09 187.082 344.089 187.045C344.089 186.999 344.163 186.953 344.293 186.949C344.93 186.928 345.882 186.902 347.034 186.938C348.597 187.011 349.112 187.307 350.303 187.783C350.752 187.971 351.297 188.199 352.017 188.535C353.544 189.259 354.69 189.943 355.817 190.924C356.614 191.631 357.401 192.505 358.122 193.765C358.659 194.716 359.059 195.433 359.434 196.118C360.174 197.572 361.075 198.956 360.843 202.264C360.837 202.327 360.831 202.391 360.824 202.456C360.416 205.483 360.127 206.781 359.704 208.527C359.401 209.599 358.97 210.848 357.793 212.425C357.355 213.006 356.851 213.571 356.294 214.1C354.676 215.653 352.6 216.843 350.616 217.531C348.507 218.277 346.535 218.483 345.22 218.583C344.859 218.611 344.481 218.631 344.089 218.637C342.16 218.673 339.859 218.373 337.593 217.456C336.528 217.026 335.475 216.464 334.493 215.772C333.698 215.213 332.896 214.574 332.131 213.844C330.624 212.414 329.266 210.603 328.384 208.566C327.745 207.101 327.354 205.53 327.256 204.003C327.22 203.447 327.212 202.863 327.239 202.264C327.319 200.213 327.872 197.995 328.786 196.135C329.854 193.909 331.379 192.235 332.445 191.313C332.499 191.266 332.552 191.22 332.604 191.175C334.778 189.455 335.429 189.088 337.895 187.879C337.901 187.877 337.907 187.874 337.913 187.872ZM344.85 191.09C346.804 191.122 346.772 191.531 348.138 192.193C349.434 192.914 350.988 192.755 352.37 194.21H352.371C353.631 195.718 353.447 196.201 354.47 198.07C355.194 199.518 355.274 201.175 355.255 202.264C355.253 202.642 355.248 202.963 355.275 203.21C355.35 204.192 354.793 204.201 354.539 205.488C354.229 206.782 353.743 207.496 352.929 208.31C352.648 208.586 352.19 209.063 351.625 209.545C350.544 210.51 348.993 211.349 348.276 211.783C347.183 212.497 345.638 212.37 344.813 212.314C344.55 212.302 344.344 212.266 344.187 212.225C344.121 212.208 344.089 212.169 344.089 212.132C344.09 212.086 344.137 212.041 344.22 212.035C344.624 212.002 345.233 211.893 345.892 211.605C347.08 211.025 347.34 211.362 348.843 210.447C349.689 209.879 350.21 209.293 350.776 208.664C351.177 208.208 351.603 207.725 352.125 207.084C353.274 205.455 352.786 204.781 353.376 202.264C353.382 202.23 353.388 202.195 353.394 202.16C353.65 199.364 352.575 199.153 351.073 197.187C350.832 196.911 350.574 196.633 350.298 196.361C348.695 194.674 346.114 193.55 344.702 193.551C344.505 193.544 344.301 193.543 344.089 193.549C342.551 193.587 340.654 194.075 338.926 195.104C338.477 195.369 338.039 195.708 337.635 196.105C336.241 197.454 335.385 199.449 335.03 201.342C334.972 201.633 334.927 201.942 334.901 202.264C334.59 204.715 336.008 207.671 337.081 208.817C337.108 208.85 337.136 208.883 337.163 208.915C338.286 210.152 338.712 210.469 340.292 211.046C341.234 211.367 342.531 211.734 343.706 212C344.296 212.128 344.174 212.296 343.549 212.352C342.633 212.421 341.909 212.194 341.402 212.278C340.382 212.426 339.865 212.431 338.86 211.665C337.896 210.881 337.135 210.953 336.594 210.423C336.426 210.251 336.339 210.107 336.202 209.912C335.952 209.474 335.293 208.98 333.986 206.826C332.998 205.069 332.731 203.482 332.672 202.264C332.628 201.204 332.744 200.386 332.875 199.721C333.089 198.382 334.428 195.993 336.055 194.465C336.204 194.317 336.353 194.174 336.5 194.036C337.945 192.46 341.839 191.047 344.089 191.113C344.374 191.1 344.63 191.095 344.85 191.09ZM222.271 192.018C218.39 192.357 214.995 192.672 211.951 192.972C211.519 193.018 211.087 193.11 210.668 193.238C215.279 193.565 219.591 193.658 222.957 193.672C224.816 193.674 226.252 193.643 227.453 193.573C231.791 193.27 232.462 193.867 238.307 193.296C238.225 193.157 238.142 193.016 238.059 192.875L238.04 192.839C237.848 192.514 237.507 192.209 237.07 191.941L236.894 191.94C231.459 191.836 228.396 191.781 224.984 191.774C224.105 191.853 223.201 191.937 222.271 192.018ZM239.782 191.909C239.781 191.907 239.78 191.906 239.779 191.905C239.775 191.897 239.77 191.888 239.766 191.88L239.782 191.909ZM360.89 181.934C361.31 181.786 361.262 182.355 361.79 182.365C362.333 182.397 362.626 182.627 362.9 183.027C363.001 183.176 363.195 183.397 363.391 183.648C363.736 184.071 364.046 184.6 364.301 184.824C364.732 185.194 364.464 185.883 364.381 186.181C364.359 186.281 364.32 186.359 364.278 186.417C364.26 186.441 364.223 186.452 364.186 186.452C364.14 186.452 364.095 186.435 364.088 186.406C364.059 186.264 363.969 186.05 363.758 185.854C363.357 185.523 363.685 185.365 363.266 184.93C363.032 184.713 362.779 184.625 362.56 184.511C362.373 184.416 362.211 184.302 362.019 184.08C361.804 183.839 361.547 183.913 361.32 183.978C361.081 184.046 360.887 184.09 360.502 183.86C360.492 183.854 360.482 183.848 360.471 183.842C359.569 183.415 359.601 184.381 359.171 184.797C359.097 184.874 359.016 184.945 358.931 185.015C358.494 185.341 357.941 185.892 357.961 186.288C357.963 186.34 357.966 186.395 357.972 186.452C358.003 186.723 358.093 187.023 358.218 187.329C358.283 187.488 358.358 187.651 358.44 187.822C358.496 187.939 358.581 188.048 358.685 188.144C358.916 188.359 359.231 188.499 359.541 188.608C359.772 188.69 360.003 188.759 360.238 188.855C360.32 188.888 360.408 188.919 360.502 188.946C360.836 189.041 361.244 189.072 361.629 189.021C362.06 188.968 362.454 188.813 362.709 188.693C362.743 188.678 362.774 188.662 362.804 188.647C363.265 188.396 363.417 188.243 363.559 187.711C363.563 187.696 363.567 187.681 363.571 187.666C363.656 187.346 363.82 186.972 364.056 186.586C364.178 186.382 364.345 186.416 364.414 186.655C364.508 187.008 364.369 187.272 364.517 187.502C364.683 187.77 364.769 187.976 364.735 188.167C364.708 188.31 364.61 188.449 364.412 188.587C363.959 188.884 364.227 189.387 363.959 189.584C363.902 189.625 363.845 189.643 363.783 189.662C363.543 189.71 363.347 189.847 362.371 190.523C362.333 190.547 362.294 190.571 362.256 190.593C361.594 190.984 360.985 191.122 360.502 191.174C360.059 191.22 359.71 191.194 359.424 191.161C359.211 191.135 358.929 191.04 358.631 190.888C358.107 190.627 357.565 190.187 357.104 189.785C357.059 189.746 357.015 189.709 356.971 189.671C356.639 189.394 356.242 188.886 355.982 188.291C355.697 187.662 355.581 186.956 355.536 186.452C355.523 186.326 355.513 186.213 355.501 186.115C355.435 185.233 355.82 185.275 356.224 184.759C356.626 184.313 356.213 183.43 356.854 182.86C356.878 182.839 356.903 182.82 356.93 182.801C357.677 182.33 358.01 182.664 358.767 182.219C359.365 181.9 360.064 181.97 360.502 181.981C360.656 181.983 360.786 181.975 360.89 181.934ZM236.084 187.276C231.181 187.639 226.446 187.658 222.957 187.741C221.807 187.753 220.811 187.761 219.932 187.769C216.343 187.767 214.423 187.688 212.77 187.526C212.781 187.683 212.795 187.835 212.808 187.981C212.899 188.972 212.975 189.855 213.041 190.671C214.607 190.577 216.1 190.542 218.067 190.575C223.474 190.03 227.981 189.558 231.023 189.165C231.567 189.094 232.078 189.03 232.562 188.973C233.874 188.883 235.033 188.947 236.054 189.209C236.066 188.647 236.076 188.01 236.084 187.276Z" fill="#01C4FF"/>
</svg>
